<svg width="40" height="40" viewBox="0 0 40 40" fill="none" xmlns="http://www.w3.org/2000/svg">
  <!-- Background Circle -->
  <circle cx="20" cy="20" r="20" fill="#2563EB"/>
  
  <!-- Dollar Sign -->
  <path d="M20 8V32M16 12H22C23.0609 12 24.0783 12.4214 24.8284 13.1716C25.5786 13.9217 26 14.9391 26 16C26 17.0609 25.5786 18.0783 24.8284 18.8284C24.0783 19.5786 23.0609 20 22 20H18C16.9391 20 15.9217 20.4214 15.1716 21.1716C14.4214 21.9217 14 22.9391 14 24C14 25.0609 14.4214 26.0783 15.1716 26.8284C15.9217 27.5786 16.9391 28 18 28H24" stroke="white" stroke-width="2.5" stroke-linecap="round" stroke-linejoin="round"/>
  
  <!-- Chart Accent -->
  <path d="M28 12L32 8M32 8L36 12M32 8V16" stroke="#60A5FA" stroke-width="2" stroke-linecap="round" stroke-linejoin="round"/>
</svg>
